<?xml version="1.0" encoding="iso-8859-1"?>
<svg fill="#111111" version="1.1" id="Capa_1" xmlns="http://www.w3.org/2000/svg" xmlns:xlink="http://www.w3.org/1999/xlink" 
	 width="800px" height="800px" viewBox="0 0 258.603 258.603"
	 xml:space="preserve" style="fill: rgb(30, 70, 80);">
<g>
	<path d="M210.264,223.43c-0.509,10.283,7.428,19.029,17.711,19.533l6.206,0.305c10.284,0.504,19.028-7.428,19.537-17.712
		l4.861-99.319c0.509-10.284-7.428-19.03-17.711-19.535l-6.204-0.305c-10.284-0.506-19.03,7.428-19.539,17.711L210.264,223.43z"/>
	<path d="M198.165,25.669c36.258-28.487-96.854-42.473-69.402,35.218c1.748,4.95,6.215,17.095,6.215,17.095s-0.84,0.539-2.21,1.543
		c-2.155-1.404-4.425-2.405-6.774-2.963c0.066-0.042,0.118-0.092,0.179-0.134c0,0-78.723-31.753-105.66,7.478
		c0,0-4.659,17.211,2.594,20.662c0,0-45.064,22.615-9.323,54.211c0,0-16.502,31.59,18.647,37.812c0,0-20.202,34.184,18.024,39.359
		c0,0,56.554,46.101,148.23-3.103l5.695-117.571C204.375,115.271,161.912,54.152,198.165,25.669z"/>
</g>
</svg>